HIERARCHY
ROOT joint_Root
{
	OFFSET 0.0 0.0 0.0
	CHANNELS 6 Xposition Yposition Zposition Zrotation Xrotation Yrotation 
	JOINT Hips
	{
		OFFSET -17.1583 93.1646 452.98
		CHANNELS 6 Xposition Yposition Zposition Zrotation Xrotation Yrotation 
		JOINT Spine
		{
			OFFSET 15.7357 0.0 0.0
			CHANNELS 6 Xposition Yposition Zposition Zrotation Xrotation Yrotation 
			JOINT Chest
			{
				OFFSET 8.98455 -0.406207 0.0
				CHANNELS 6 Xposition Yposition Zposition Zrotation Xrotation Yrotation 
				JOINT Neck
				{
					OFFSET 16.3773 0.0 0.0
					CHANNELS 6 Xposition Yposition Zposition Zrotation Xrotation Yrotation 
					JOINT Head
					{
						OFFSET 6.45672 0.0 0.0
						CHANNELS 6 Xposition Yposition Zposition Zrotation Xrotation Yrotation 
						End Site
						{
							OFFSET 0.0 0.0 0.0
						}
					}
				}
				JOINT Shoulder_L
				{
					OFFSET 12.9942 -0.242716 4.98039
					CHANNELS 6 Xposition Yposition Zposition Zrotation Xrotation Yrotation 
					JOINT UpperArm_L
					{
						OFFSET 5.34809 0.0 0.0
						CHANNELS 6 Xposition Yposition Zposition Zrotation Xrotation Yrotation 
						JOINT LowerArm_L
						{
							OFFSET 24.3286 1.87007e-05 0.0
							CHANNELS 6 Xposition Yposition Zposition Zrotation Xrotation Yrotation 
							JOINT Hand_L
							{
								OFFSET 22.2916 0.0 0.0
								CHANNELS 6 Xposition Yposition Zposition Zrotation Xrotation Yrotation 
								End Site
								{
									OFFSET 0.0 0.0 0.0
								}
							}
						}
					}
				}
				JOINT Shoulder_R
				{
					OFFSET 12.9945 -0.242716 -4.98039
					CHANNELS 6 Xposition Yposition Zposition Zrotation Xrotation Yrotation 
					JOINT UpperArm_R
					{
						OFFSET -5.34813 0.0 0.0
						CHANNELS 6 Xposition Yposition Zposition Zrotation Xrotation Yrotation 
						JOINT LowerArm_R
						{
							OFFSET -24.3289 0.000322201 0.0
							CHANNELS 6 Xposition Yposition Zposition Zrotation Xrotation Yrotation 
							JOINT Hand_R
							{
								OFFSET -22.2915 -0.000108084 0.0
								CHANNELS 6 Xposition Yposition Zposition Zrotation Xrotation Yrotation 
								End Site
								{
									OFFSET 0.0 0.0 0.0
								}
							}
						}
					}
				}
			}
		}
		JOINT UpperLeg_L
		{
			OFFSET -2.19248 -6.46944 0.0
			CHANNELS 6 Xposition Yposition Zposition Zrotation Xrotation Yrotation 
			JOINT LowerLeg_L
			{
				OFFSET 39.0811 0.0 -1.23785e-05
				CHANNELS 6 Xposition Yposition Zposition Zrotation Xrotation Yrotation 
				JOINT Foot_L
				{
					OFFSET 40.9854 0.0 -1.26872e-05
					CHANNELS 6 Xposition Yposition Zposition Zrotation Xrotation Yrotation 
					JOINT Toes_L
					{
						OFFSET 11.7543 0.0 0.0
						CHANNELS 6 Xposition Yposition Zposition Zrotation Xrotation Yrotation 
						End Site
						{
							OFFSET 0.0 0.0 0.0
						}
					}
				}
			}
		}
		JOINT UpperLeg_R
		{
			OFFSET -2.19251 6.46944 0.0
			CHANNELS 6 Xposition Yposition Zposition Zrotation Xrotation Yrotation 
			JOINT LowerLeg_R
			{
				OFFSET -39.0811 -0.00228153 -0.0401928
				CHANNELS 6 Xposition Yposition Zposition Zrotation Xrotation Yrotation 
				JOINT Foot_R
				{
					OFFSET -40.9854 0.0 0.0
					CHANNELS 6 Xposition Yposition Zposition Zrotation Xrotation Yrotation 
					JOINT Toes_R
					{
						OFFSET -11.7543 0.0 0.0
						CHANNELS 6 Xposition Yposition Zposition Zrotation Xrotation Yrotation 
						End Site
						{
							OFFSET 0.0 0.0 0.0
						}
					}
				}
			}
		}
	}
}
MOTION
Frames:	9
Frame Time:	0.0333333
0.000000 0.000000 0.000000 0.000000 0.000000 -0.000000 -1.809350 93.825500 -4.252230 88.023800 2.077240 -2.616030 15.735700 0.000005 -0.000001 80.973000 86.671100 -79.031300 8.984550 -0.406207 -0.000000 -1.167450 -1.195700 3.869870 16.377300 -0.000001 -0.000001 -7.664010 1.530200 -1.085770 6.456720 -0.000001 -0.000000 -4.167050 1.365720 -1.880120 12.994200 -0.242716 4.980390 -91.532700 5.102100 -73.254600 5.348090 -0.000007 -0.000001 -73.150200 9.458980 -7.293480 24.328600 0.000019 0.000005 1.813910 19.862100 -5.328060 22.291600 -0.000001 0.000005 -9.368300 4.652210 14.015500 12.994500 -0.242716 -4.980390 89.015800 3.421150 -73.938300 -5.348130 -0.000001 -0.000004 -69.389300 8.206520 -9.497610 -24.328900 0.000322 -0.000009 -0.147338 -9.031640 -0.937575 -22.291500 -0.000108 -0.000004 -8.402520 4.942660 8.535690 -2.192480 -6.469440 -0.000000 -172.780000 -4.126700 -5.532450 39.081100 -0.000007 -0.000012 -0.001371 0.007234 10.724900 40.985400 -0.000006 -0.000013 -4.496290 13.462200 -64.098900 11.754300 -0.000000 0.000003 -0.000248 0.171697 -9.612660 -2.192510 6.469440 -0.000001 178.981000 9.615180 176.218000 -39.081100 -0.002282 -0.040193 0.016344 -0.085856 8.612280 -40.985400 0.000008 0.000006 -7.859460 6.061880 -63.222000 -11.754300 -0.000006 -0.000006 -0.008293 0.258079 -6.091620
0.000000 0.000000 0.000000 0.000000 0.000000 -0.000000 -1.811040 93.909000 -3.724760 87.902500 2.509180 -4.096410 15.735700 0.000005 -0.000001 73.508400 87.623700 -71.369700 8.984550 -0.406207 -0.000000 -3.176930 -1.552630 4.235400 16.377300 -0.000001 -0.000001 -8.378980 1.831510 -0.844944 6.456720 -0.000001 -0.000000 -3.005880 1.896170 -1.876190 12.994200 -0.242716 4.980390 -91.237300 3.881720 -72.302700 5.348090 -0.000007 -0.000001 -70.037200 0.559504 -5.830840 24.328600 0.000019 0.000005 1.214800 23.180200 -3.084790 22.291600 -0.000001 0.000005 -14.333400 4.604900 14.837300 12.994500 -0.242716 -4.980390 89.221800 2.467700 -72.486100 -5.348130 -0.000001 -0.000004 -67.471800 -5.332880 -7.721630 -24.328900 0.000322 -0.000009 -0.000358 -12.316000 -0.000070 -22.291500 -0.000108 -0.000004 -11.841800 4.802570 11.281200 -2.192480 -6.469440 -0.000000 -172.557000 -4.205190 -6.185840 39.081100 -0.000007 -0.000012 -0.012033 0.071790 9.514880 40.985400 -0.000006 -0.000013 -5.903900 13.897800 -63.364200 11.754300 -0.000000 0.000003 -0.000461 0.175047 -9.476550 -2.192510 6.469440 -0.000001 179.226000 10.674700 176.546000 -39.081100 -0.002282 -0.040193 0.013262 -0.098933 5.723750 -40.985400 0.000008 0.000006 -8.947730 6.650250 -61.753600 -11.754300 -0.000006 -0.000006 -0.008238 0.257634 -6.109800
0.000000 0.000000 0.000000 0.000000 0.000000 -0.000000 -1.801410 93.980000 -3.040830 87.764800 2.837780 -5.514330 15.735700 0.000005 -0.000001 58.873600 88.463100 -56.526800 8.984550 -0.406207 -0.000000 -5.093980 -1.850350 4.615650 16.377300 -0.000001 -0.000001 -9.442920 1.996010 -0.645515 6.456720 -0.000001 -0.000000 -1.682570 2.400920 -1.969050 12.994200 -0.242716 4.980390 -90.941400 2.791140 -71.351500 5.348090 -0.000007 -0.000001 -64.515000 -9.810010 -4.029410 24.328600 0.000019 0.000005 0.776809 24.618800 -1.864110 22.291600 -0.000001 0.000005 -18.961100 4.541880 15.910900 12.994500 -0.242716 -4.980390 89.588100 1.199760 -71.039100 -5.348130 -0.000001 -0.000004 -64.048900 -23.615800 -6.160520 -24.328900 0.000322 -0.000009 -0.001433 -18.198200 -0.000101 -22.291500 -0.000108 -0.000004 -11.825000 4.624700 14.470900 -2.192480 -6.469440 -0.000000 -172.307000 -4.309290 -6.528760 39.081100 -0.000007 -0.000012 -0.017388 0.123015 8.044830 40.985400 -0.000006 -0.000013 -7.370410 14.211800 -62.532800 11.754300 -0.000000 0.000003 -0.000525 0.176039 -9.436270 -2.192510 6.469440 -0.000001 179.588000 11.942900 176.549000 -39.081100 -0.002282 -0.040193 0.010316 -0.107507 3.707860 -40.985400 0.000008 0.000006 -9.358080 7.437300 -60.670300 -11.754300 -0.000006 -0.000006 -0.009112 0.264542 -5.827510
0.000000 0.000000 0.000000 0.000000 0.000000 -0.000000 -1.766690 94.022300 -2.253310 87.749300 3.066060 -6.724980 15.735700 0.000005 -0.000001 27.867300 88.924800 -25.400400 8.984550 -0.406207 -0.000000 -6.711220 -2.208760 4.812450 16.377300 -0.000001 -0.000001 -10.973500 2.197300 -0.519223 6.456720 -0.000001 -0.000000 -0.355235 3.062980 -1.772320 12.994200 -0.242716 4.980390 -90.812000 2.258740 -70.218600 5.348090 -0.000007 -0.000001 -56.033500 -18.385300 -2.476880 24.328600 0.000019 0.000005 0.494263 24.870200 -1.174980 22.291600 -0.000001 0.000005 -21.493400 4.497390 16.643300 12.994500 -0.242716 -4.980390 90.128400 -0.349205 -69.836200 -5.348130 -0.000001 -0.000004 -59.588800 -40.822800 -5.264980 -24.328900 0.000322 -0.000009 -0.001442 -28.346400 -0.000162 -22.291500 -0.000108 -0.000004 -8.161830 4.555780 15.681900 -2.192480 -6.469440 -0.000000 -172.188000 -4.544790 -6.352400 39.081100 -0.000007 -0.000012 -0.016256 0.151619 6.119520 40.985400 -0.000006 -0.000013 -8.935730 14.535800 -61.285500 11.754300 -0.000000 0.000003 -0.000676 0.178315 -9.343790 -2.192510 6.469440 -0.000001 179.817000 12.866700 176.372000 -39.081100 -0.002282 -0.040193 0.007410 -0.088468 2.626710 -40.985400 0.000008 0.000006 -9.398240 8.015870 -60.282100 -11.754300 -0.000006 -0.000006 -0.009763 0.269524 -5.623840
0.000000 0.000000 0.000000 0.000000 0.000000 -0.000000 -1.735230 94.049000 -1.454990 87.803500 2.974900 -7.773660 15.735700 0.000005 -0.000001 -14.531900 88.951000 16.984700 8.984550 -0.406207 -0.000000 -8.240910 -2.367140 4.746690 16.377300 -0.000001 -0.000001 -12.328600 2.221060 -0.170067 6.456720 -0.000001 -0.000000 0.521935 3.613110 -1.873080 12.994200 -0.242716 4.980390 -90.636200 1.643160 -68.826900 5.348090 -0.000007 -0.000001 -46.253700 -24.237700 -1.594390 24.328600 0.000019 0.000005 0.434840 24.062300 -1.066230 22.291600 -0.000001 0.000005 -19.298400 4.489870 16.769000 12.994500 -0.242716 -4.980390 90.743100 -1.921170 -68.852700 -5.348130 -0.000001 -0.000004 -54.130100 -52.762700 -5.338830 -24.328900 0.000322 -0.000009 -0.000970 -38.448700 -0.000235 -22.291500 -0.000108 -0.000004 -2.360740 4.697210 13.256800 -2.192480 -6.469440 -0.000000 -172.174000 -5.168170 -5.181460 39.081100 -0.000007 -0.000012 -0.005226 0.109438 2.733330 40.985400 -0.000006 -0.000013 -10.596100 14.858300 -59.348700 11.754300 -0.000000 0.000003 -0.000868 0.181134 -9.229240 -2.192510 6.469440 -0.000001 179.908000 13.111000 176.084000 -39.081100 -0.002282 -0.040193 0.006269 -0.081006 2.062510 -40.985400 0.000008 0.000006 -9.464240 8.248560 -60.144400 -11.754300 -0.000006 -0.000006 -0.010057 0.271731 -5.533580
0.000000 0.000000 0.000000 0.000000 0.000000 -0.000000 -1.735100 94.049200 -0.626645 87.841600 2.743220 -8.499510 15.735700 0.000005 -0.000001 -46.658500 88.680800 48.961400 8.984550 -0.406207 -0.000000 -9.641170 -2.152820 4.438730 16.377300 -0.000001 -0.000001 -13.330900 2.009790 0.118750 6.456720 -0.000001 -0.000000 0.995710 3.739290 -1.666150 12.994200 -0.242716 4.980390 -90.194900 0.466110 -67.282200 5.348090 -0.000007 -0.000001 -37.164200 -29.479700 -2.870330 24.328600 0.000019 0.000005 0.246030 23.417600 -0.618929 22.291600 -0.000001 0.000005 -13.946200 4.448390 17.425400 12.994500 -0.242716 -4.980390 91.463100 -3.617070 -67.962400 -5.348130 -0.000001 -0.000004 -47.937900 -60.518800 -5.920120 -24.328900 0.000322 -0.000009 -0.001149 -44.366800 -0.000289 -22.291500 -0.000108 -0.000004 6.632970 4.899350 9.482810 -2.192480 -6.469440 -0.000000 -172.216000 -5.552500 -3.936590 39.081100 -0.000007 -0.000012 -0.000001 0.040303 0.000006 40.985400 -0.000006 -0.000013 -11.175000 14.791300 -58.100100 11.754300 -0.000000 0.000003 -0.001008 0.183146 -9.147490 -2.192510 6.469440 -0.000001 179.933000 13.566800 176.043000 -39.081100 -0.002282 -0.040193 0.005654 -0.078519 1.678450 -40.985400 0.000008 0.000006 -9.691280 8.889060 -60.014400 -11.754300 -0.000006 -0.000006 -0.010084 0.271929 -5.525470
0.000000 0.000000 0.000000 0.000000 0.000000 -0.000000 -1.740820 94.025900 0.201347 87.921700 2.646400 -8.780880 15.735700 0.000005 -0.000001 -65.457400 88.270600 67.521700 8.984550 -0.406207 -0.000000 -10.880000 -1.764500 3.976580 16.377300 -0.000001 -0.000001 -13.467500 1.518710 0.524921 6.456720 -0.000001 -0.000000 1.125340 3.703420 -1.948110 12.994200 -0.242716 4.980390 -89.295200 -1.598420 -66.206800 5.348090 -0.000007 -0.000001 -30.189700 -35.943300 -5.810270 24.328600 0.000019 0.000005 0.286545 21.300900 -0.788758 22.291600 -0.000001 0.000005 -7.890280 4.313280 19.561500 12.994500 -0.242716 -4.980390 92.489400 -6.017710 -67.475700 -5.348130 -0.000001 -0.000004 -41.727100 -66.454500 -6.491270 -24.328900 0.000322 -0.000009 -0.001344 -47.450600 -0.000321 -22.291500 -0.000108 -0.000004 18.769100 5.057260 6.147600 -2.192480 -6.469440 -0.000000 -172.252000 -5.412470 -3.641920 39.081100 -0.000007 -0.000012 -0.000001 0.048387 0.000005 40.985400 -0.000006 -0.000013 -11.048000 14.594700 -58.464300 11.754300 -0.000000 0.000003 -0.000987 0.182857 -9.159250 -2.192510 6.469440 -0.000001 179.837000 14.370000 176.585000 -39.081100 -0.002282 -0.040193 0.004822 -0.074032 1.136610 -40.985400 0.000008 0.000006 -9.873030 9.728580 -59.903700 -11.754300 -0.000006 -0.000006 -0.010209 0.272862 -5.487280
0.000000 0.000000 0.000000 0.000000 0.000000 -0.000000 -1.759000 93.986300 0.968370 88.077200 2.697670 -8.617710 15.735700 0.000005 -0.000001 -75.265200 87.980400 77.057400 8.984550 -0.406207 -0.000000 -11.650900 -1.324270 3.464620 16.377300 -0.000001 -0.000001 -13.517300 1.147460 0.669166 6.456720 -0.000001 -0.000000 1.204600 3.454800 -2.100800 12.994200 -0.242716 4.980390 -88.279900 -3.774660 -65.481800 5.348090 -0.000007 -0.000001 -25.793000 -44.824400 -11.156800 24.328600 0.000019 0.000005 0.300906 17.280700 -1.012430 22.291600 -0.000001 0.000005 -2.792850 4.154860 21.960800 12.994500 -0.242716 -4.980390 93.725100 -8.655820 -66.607600 -5.348130 -0.000001 -0.000004 -38.670100 -70.902400 -10.510700 -24.328900 0.000322 -0.000009 -0.001356 -50.763800 -0.000361 -22.291500 -0.000108 -0.000004 29.836600 5.122370 4.604470 -2.192480 -6.469440 -0.000000 -172.312000 -5.065260 -2.977250 39.081100 -0.000007 -0.000012 -0.000001 0.039283 0.000000 40.985400 -0.000006 -0.000013 -10.908900 14.380900 -58.679600 11.754300 -0.000000 0.000003 -0.000848 0.180858 -9.240450 -2.192510 6.469440 -0.000001 179.562000 14.916700 177.405000 -39.081100 -0.002282 -0.040193 0.004508 -0.072006 0.918500 -40.985400 0.000008 0.000006 -9.956750 10.220100 -59.979200 -11.754300 -0.000006 -0.000006 -0.010349 0.273898 -5.444940
0.000000 0.000000 0.000000 0.000000 0.000000 -0.000000 -1.774540 93.951300 1.653400 88.213700 2.744430 -8.118510 15.735700 0.000005 -0.000001 -78.210700 87.772900 79.816000 8.984550 -0.406207 -0.000000 -12.109000 -1.181950 3.100010 16.377300 -0.000001 -0.000001 -13.096100 1.103230 0.647090 6.456720 -0.000001 -0.000000 1.361480 3.384130 -2.266630 12.994200 -0.242716 4.980390 -87.276000 -5.727670 -64.512600 5.348090 -0.000007 -0.000001 -24.874400 -53.385500 -19.959900 24.328600 0.000019 0.000005 0.133611 11.267700 -0.683057 22.291600 -0.000001 0.000005 2.402640 3.983950 24.430800 12.994500 -0.242716 -4.980390 95.149500 -11.269600 -65.245600 -5.348130 -0.000001 -0.000004 -45.425000 -74.774000 -24.871100 -24.328900 0.000322 -0.000009 -0.142164 -51.447700 -0.180588 -22.291500 -0.000108 -0.000004 35.627500 5.091450 5.297080 -2.192480 -6.469440 -0.000000 -172.360000 -5.044950 -2.012890 39.081100 -0.000007 -0.000012 -0.000001 0.019326 0.000009 40.985400 -0.000006 -0.000013 -10.676500 14.541900 -58.844200 11.754300 -0.000000 0.000003 -0.000806 0.180243 -9.265450 -2.192510 6.469440 -0.000001 179.211000 14.885200 178.279000 -39.081100 -0.002282 -0.040193 0.004869 -0.072288 1.200850 -40.985400 0.000008 0.000006 -9.859530 10.182700 -60.376600 -11.754300 -0.000006 -0.000006 -0.010688 0.276379 -5.343410
